<svg xmlns="http://www.w3.org/2000/svg" xml:space="preserve" width="101px" height="69px" x="0px" y="0px" viewBox="0 0 101 69"><path fill="#FFF" d="M22.068 33.22h-8.67l-.67-3.974h37.225v3.973h-1.005v-3.041H21.753l.315 3.042zm-9.491-4.88h37.366v-2.912h-37.85l.484 2.912zm23.371 9.769h14v-2.086H35.953l-.005 2.086zm-24.22-13.608h8.855l-1.676-2.914H48.95v2.902h1.006V20.58H8.985l2.743 3.921zm53.452-3.92H51.055v5.852h14.131l-.006-5.852zM15.414 43.148c.23.348.655.754 2.068 1.138.683.167 1.444.335 2.496.569H34.97V42.79H15.22c.052.125.116.246.19.358h.004zm-.856-3.158H34.97v-5.835H13.554l1.004 5.835zm21.39 8.188c5.228 1.029 10.339 1.979 14.008 2.555v-9.795H35.948v7.24zm30.2-14.96h21.459l.98-5.854H66.148v5.854zm0-10.777v2.078l23.082-.009 1.447-2.07-24.529.001zM101 15.957l-6.8 9.6c-.745 4.076-2.694 14.577-2.915 15.599-.641 2.939-.947 4.727-6.717 6.1-7.68 1.821-25.25 5.362-34.074 6.744-8.822-1.38-26.382-4.923-34.063-6.744-5.77-1.373-6.076-3.16-6.716-6.1-.221-1.016-2.17-11.523-2.915-15.6L0 15.958l101-.001zm-5.361 1.805H5.368l5.363 7.656c1.34 7.962 2.17 13.081 2.513 14.866.596 3.104.702 4.442 3.91 5.308 6.376 1.508 24.858 5.309 33.352 6.59 8.493-1.281 26.977-5.076 33.358-6.59 3.206-.865 3.312-2.203 3.909-5.308.334-1.785 1.172-6.904 2.513-14.866l5.353-7.656zM51.055 38.109h1.006v-2.946h26.705c-.035.286-.283 2.262-.412 2.956h8.433l.67-3.963h-36.4v3.954h-.002zm0 3.819h35.021l.567-2.9H51.055v2.9zm14.131-12.68H51.055v2.09h14.131v-2.09zM51.057 42.79h34.738a1.722 1.722 0 0 1-.188.358c-.23.349-.65.777-2.07 1.131-6.29 1.566-23.578 4.994-32.48 6.449V42.79zm1.006 6.767c1.602-.291 5.516-.973 6.912-1.238 14.211-2.717 16.649-3.131 17.834-4.524H52.061v5.763h.002z"/></svg>