<svg xmlns="http://www.w3.org/2000/svg" viewBox="0 0 512 299" role="img" aria-label="McLaren">
  <path d="M496.6,52.8 C495.2,43.9 491.1,37.3 482.9,31.1 C474.7,24.9 467.6,18.0 447.4,15.4 C427.3,12.7 392.5,12.1 361.8,15.4 C331.1,18.6 291.8,27.8 263.4,35.0 C235.0,42.3 230.4,43.4 191.5,58.7 C152.7,73.9 59.3,113.6 30.1,126.6 C0.9,139.5 18.8,133.6 16.3,136.4 C13.9,139.2 11.3,141.2 15.4,143.3 C19.5,145.4 24.9,150.5 40.9,149.2 C57.0,147.9 88.7,138.6 111.8,135.4 C134.9,132.3 163.2,130.8 179.7,130.5 C196.3,130.2 197.4,130.2 211.2,133.5 C225.0,136.7 251.7,145.4 262.4,150.2 C273.1,155.0 270.3,154.6 275.2,162.0 C280.1,169.4 290.0,184.3 291.9,194.5 C293.9,204.7 292.3,209.4 287.0,223.0 C281.8,236.6 264.7,266.2 260.4,276.2 C256.2,286.2 260.3,281.8 261.4,283.1 C262.6,284.4 260.8,286.8 267.3,284.1 C273.9,281.3 279.0,281.9 300.8,266.3 C322.6,250.8 372.3,212.4 398.2,190.5 C424.1,168.7 440.7,153.1 456.3,135.4 C471.9,117.7 485.0,98.0 491.7,84.3 C498.4,70.5 498.1,61.6 496.6,52.8 Z" fill="#FF8000"/>
</svg>
