<?xml version="1.0" encoding="UTF-8"?>
<svg version="1.1" xmlns="http://www.w3.org/2000/svg" width="600" height="499">
<path d="M0 0 C3.71705147 1.25519835 6.50964951 3.06461453 9.65600586 5.37646484 C19.94521593 12.69184391 31.14685612 14.86899621 43.33984375 17.4296875 C52.70411995 19.46648665 63.46047554 23.30397764 69.640625 31.05859375 C74.22282374 38.23473833 74.66931132 44.56470883 74 53 C71.42816958 64.13880606 61.45331081 71.87999554 52.91015625 78.6328125 C48.67418411 82.0784489 44.71588454 85.79365501 40.7265625 89.51953125 C38 92 38 92 35.37890625 93.99609375 C28.42381221 99.85481828 24.65136833 108.28125631 23.7890625 117.17578125 C23.46668639 124.35484929 25.10968847 130.87878541 29.4375 136.6875 C35.422096 142.98088351 43.12630711 146.33310166 51.75 146.6875 C72.24909576 145.61096105 90.87297129 133.96106654 106.38867188 121.29882812 C122.2387515 108.52270334 137.01497766 100.75315442 157.5 98.5625 C174.44142013 96.51439849 185.81076988 90.73097983 198.5625 79.4375 C211.01594104 68.43307357 222.57556864 63.35282668 239.25 62.1875 C247.3639409 61.57375223 252.39129582 60.25586235 258 54 C259.1419992 52.82958 260.28778401 51.66284061 261.4375 50.5 C262.00210937 49.92378906 262.56671875 49.34757812 263.1484375 48.75390625 C273.73763459 38.72321112 287.25021733 34.52151762 300.8125 30.125 C314.62483237 25.62377437 327.08983615 20.1810789 339.16625977 12.09204102 C350.80339598 4.37195226 363.18691154 2.43059036 376.93359375 4.42578125 C392.16871406 8.11571381 403.39256987 17.0168987 415 27 C416.17064617 27.99103669 417.34246735 28.9806876 418.515625 29.96875 C420.67802893 31.79125274 422.83512405 33.61971047 424.98828125 35.453125 C428.67606409 38.57171697 432.41819733 41.61964739 436.1640625 44.66796875 C439.97670669 47.80315963 443.74073564 50.99413759 447.49804688 54.1953125 C449.84411047 56.19108555 452.19627252 58.15120253 454.63671875 60.03125 C457.09560699 62.07964616 458.95085098 64.18156846 460.9375 66.6875 C461.71480469 67.65945312 462.49210937 68.63140625 463.29296875 69.6328125 C463.93564697 70.4376709 463.93564697 70.4376709 464.59130859 71.25878906 C466.11887246 73.14693213 467.67521837 75.00833589 469.23828125 76.8671875 C486.8567758 97.8653538 502.38056742 117.29616676 505.8125 145.125 C508.25451292 163.19376385 512.59657241 180.37696557 518.29827881 197.67874146 C518.92149381 199.57626541 519.52763132 201.47937141 520.13330078 203.38256836 C522.25033928 209.57903981 523.94115184 213.81632532 529.30688477 217.6875 C532.25934976 219.97624576 534.03149455 223.05694787 536 226.1875 C536.42659912 226.84242432 536.85319824 227.49734863 537.29272461 228.17211914 C539.21170207 231.13058787 541.06834312 234.11423674 542.87890625 237.140625 C548.72287721 246.84893871 555.85089895 253.00942549 566 258 C566 259.98 566 261.96 566 264 C557.9573403 266.68088657 550.42908379 264.64486074 543 261 C533.34213504 254.87476069 527.65379597 246.7640486 521.9296875 237.0859375 C518.56129525 231.69923734 515.4514597 228.34521391 510 225 C510.4846875 225.80179688 510.969375 226.60359375 511.46875 227.4296875 C515.0530492 233.50921038 518.28375822 239.48280956 520.96533203 246.01855469 C526.35860051 259.09133904 533.74820478 264.68269129 545.9609375 271.23828125 C550.69484279 273.98248598 550.69484279 273.98248598 552 276 C551.6875 278.6875 551.6875 278.6875 551 281 C532.90096092 281.39973338 519.928067 279.09842254 506.1875 266.0625 C503.56346409 263.58840899 501.19473715 261.67343375 498 260 C493.24288796 260.43789316 490.2697112 263.98357505 486.828125 266.9921875 C479.68550207 272.06305516 473.31971682 272.31679855 464.75 272 C456.32232214 271.85480951 449.02159431 272.18637338 441 275 C439.7103231 275.42785971 438.41990379 275.85348554 437.12890625 276.27734375 C434.52643188 277.13477944 431.93674347 278.01564107 429.34765625 278.9140625 C424.47504463 280.4946763 420.12167265 281.17160705 415 281.25 C413.989375 281.27578125 412.97875 281.3015625 411.9375 281.328125 C407.75652249 280.86110092 405.14143853 279.18220419 402.25 276.1875 C400.62144624 273.33753092 400.29928027 271.29208297 400 268 C399.86851562 266.75476563 399.86851562 266.75476563 399.734375 265.484375 C399.27199482 257.96018841 401.22881139 253.75098627 406 248 C403.69 248 401.38 248 399 248 C397.60567012 245.65165493 396.84783317 243.87633427 397.32421875 241.1328125 C399.53460104 234.56554951 403.48596179 229.87243471 409 225.765625 C412.51889973 222.87165307 413.75104599 219.6719166 415.1875 215.4375 C416.68123797 211.22787481 418.03863867 207.4330826 421 204 C418.16580388 204.28463081 415.33285146 204.57750619 412.5 204.875 C411.70851563 204.95363281 410.91703125 205.03226563 410.1015625 205.11328125 C403.57217873 205.80903526 397.54644652 207.23606604 391.25 209.125 C385.97252078 210.44962626 380.39736487 210.5646474 375 210 C373 208 373 208 372.6640625 205.3046875 C373.07508173 201.26140527 374.43242484 198.68506631 376.375 195.125 C381.97092163 184.3789359 382.26052218 175.92612633 382 164 C381.86013672 164.5576001 381.72027344 165.1152002 381.57617188 165.68969727 C374.13951363 194.78771497 374.13951363 194.78771497 365.3359375 202.26171875 C361.17472663 204.43003121 357.20461435 205.35891076 352.625 206.25 C351.37783203 206.50910156 351.37783203 206.50910156 350.10546875 206.7734375 C348.0727018 207.19400997 346.03664899 207.59864779 344 208 C344.40180684 214.5384931 346.07147491 218.58515761 349.5625 224.0625 C350.46916704 225.55624956 351.37408398 227.05106263 352.27734375 228.546875 C353.60203246 230.7148034 354.92779608 232.88206788 356.25439453 235.04882812 C361.27712967 243.37115521 364.40482074 250.02047156 363 260 C362.84273438 261.12535156 362.68546875 262.25070312 362.5234375 263.41015625 C362.07239526 266.28807504 361.56733311 269.14307255 361 272 C368.33506427 262.85026703 368.33506427 262.85026703 370.8515625 251.859375 C369.78326692 247.01774182 367.77008767 243.24454044 365.375 238.9375 C364.47068419 237.25817311 363.567044 235.57848223 362.6640625 233.8984375 C361.38209281 231.53817554 360.09776623 229.1792247 358.81152344 226.82128906 C357.77601002 224.90921859 356.7608893 222.98766863 355.75 221.0625 C354.87601562 219.44021484 354.87601562 219.44021484 353.984375 217.78515625 C353 215 353 215 353.765625 212.68359375 C355 211 355 211 356 210 C358.0390625 209.796875 358.0390625 209.796875 360.625 209.75 C361.88183594 209.71132813 361.88183594 209.71132813 363.1640625 209.671875 C367.00497172 210.11627772 369.63563902 211.07250152 373 213 C374.46899065 215.4997022 375.42389315 217.50765982 376.375 220.1875 C378.44100488 225.5065058 380.70184572 230.37132723 383.69995117 235.23168945 C387.41378585 241.28855892 390.44043978 246.52568072 389.8203125 253.8671875 C388.01142702 260.7754073 384.60279601 266.87931315 381 273 C380.40316406 274.03511719 379.80632812 275.07023437 379.19140625 276.13671875 C376.24494441 280.79798055 373.73201767 284.09879341 368.3203125 285.65234375 C365.61418771 286.05780689 362.98580746 286.07252287 360.25 286.125 C353.02983201 286.53118626 347.58102893 289.1913968 341.17480469 292.27001953 C334.26902007 295.54657186 327.26317422 298.12610183 320 300.5 C318.45058716 301.00672241 318.45058716 301.00672241 316.86987305 301.52368164 C307.72745772 304.4701715 299.19309527 307.09659855 289.90234375 303.0859375 C283.79765106 299.60112319 280.87821933 294.83066943 277.875 288.625 C276.29409254 285.44814226 276.29409254 285.44814226 274 283 C270.45981399 282.02709174 267.54937712 281.9239236 263.890625 282.08984375 C261 282 261 282 259.48803711 280.75927734 C256.62712309 277.37687432 254.54315095 273.50119356 252.3125 269.6875 C251.80138672 268.84509766 251.29027344 268.00269531 250.76367188 267.13476562 C248.12512973 262.62916428 246.25164821 259.396937 247 254 C255.911634 249.64320115 266.11023398 247.82559029 276 249 C285.97755026 252.6584351 290.44005999 263.48674506 295.2265625 272.3359375 C297.84546614 276.27006147 300.316399 278.50267613 304.8828125 279.8515625 C314.03338428 280.28730401 322.65828808 276.08272363 330 271 C330.66 271 331.32 271 332 271 C333.95335209 265.34555974 334.31422687 261.83434852 332.10546875 256.23046875 C327.4898843 246.91775241 320.25916239 241.99708364 311.625 236.6875 C305.82459774 233.04613636 300.8793772 228.79098269 296 224 C295.4740625 223.48695313 294.948125 222.97390625 294.40625 222.4453125 C291.0808577 218.85632203 289.52803523 214.79468484 287.89453125 210.26953125 C287.00517324 207.77922596 287.00517324 207.77922596 285 205 C284.77153991 210.25458206 285.50464352 214.6783066 286.85546875 219.765625 C287 222 287 222 285.86328125 223.671875 C276.24858482 230.52511774 261.88337627 226.68730789 251 225 C249.4262591 224.72604762 247.85335138 224.44727194 246.28125 224.1640625 C235.01538689 222.16217815 225.14130897 221.68374047 213.73828125 223.52734375 C208.95911699 224.1316059 204.25039649 224.26169532 199.4375 224.3125 C198.51775391 224.34150391 197.59800781 224.37050781 196.65039062 224.40039062 C190.92757687 224.45387487 187.45028925 223.97596375 183 220 C181.57421875 218.03515625 181.57421875 218.03515625 180.6875 216.0625 C180.38199219 215.41410156 180.07648438 214.76570312 179.76171875 214.09765625 C177.76179646 208.59017796 177.84477444 203.22569478 177.875 197.4375 C177.87693359 196.5515918 177.87886719 195.66568359 177.88085938 194.75292969 C177.92429862 188.1332712 178.25097005 181.58076313 179 175 C177.55208821 179.06372724 176.56303531 182.96072611 175.88671875 187.21875 C169.17185261 228.02081013 169.17185261 228.02081013 152.203125 241.515625 C139.49560186 250.07743137 124.63774921 253.76172889 109.44140625 254.2902832 C89.5107619 255.0000465 68.84123467 258.50391033 54 273 C52.17836201 275.58508309 50.54638145 278.24251449 49 281 C49.969375 280.154375 50.93875 279.30875 51.9375 278.4375 C53.2893004 277.28887601 54.64364856 276.14324632 56 275 C56.68707031 274.4121875 57.37414062 273.824375 58.08203125 273.21875 C72.96094591 260.99391201 91.05455931 258.21227112 109.73925781 257.70996094 C129.58962567 257.14979811 148.13300529 254.70514572 162.86328125 240.16015625 C167.66863748 234.94991413 171.34203487 229.04842866 175 223 C180.13599156 223.7612117 182.22662093 225.57763294 186 229 C184.36484799 234.82522902 182.09322109 240.1322634 179.3125 245.5 C179.01021484 246.10400635 178.70792969 246.7080127 178.39648438 247.33032227 C172.8337049 257.79411192 165.24449596 263.64184414 154.8125 268.9375 C153.21245117 269.78151367 153.21245117 269.78151367 151.58007812 270.64257812 C139.86376889 276.77550547 131.30532377 278.98733076 118.1875 276.5625 C102.16894286 273.51117728 102.16894286 273.51117728 87 278 C84.97953944 279.59443443 83.09046976 281.27746307 81.203125 283.02734375 C72.69287435 290.64733769 63.80186074 297.13071681 52 297 C49.15253128 296.50325752 46.37535239 295.90762094 43.578125 295.1796875 C40.07844074 294.93577011 38.73039429 295.84066856 36 298 C34.09361415 300.51680162 34.09361415 300.51680162 32.5 303.375 C28.89481415 309.29000189 25.31041404 313.88406942 19 317 C15.43359375 317.36328125 15.43359375 317.36328125 11.4375 317.3125 C10.73947266 317.30412109 10.04144531 317.29574219 9.32226562 317.28710938 C3.10631905 317.14519279 -2.91794761 316.29013232 -9 315 C-8.5823695 305.56155063 -6.71044839 294.07317533 0 287 C2.0078125 286.26171875 2.0078125 286.26171875 4.3125 285.625 C10.8978927 283.80535202 13.97805078 278.82285118 17.8046875 273.48046875 C21.12791195 269.72557992 25.26736088 267.76758313 29.61328125 265.35546875 C37.65003325 260.22475374 41.37311796 252.84609587 44.6875 244.1875 C45.40969545 242.32257404 46.14238138 240.46166836 46.88671875 238.60546875 C47.19826904 237.79231201 47.50981934 236.97915527 47.83081055 236.14135742 C49.21399652 233.60806777 50.53180107 232.47169572 53 231 C56.14453125 230.69921875 56.14453125 230.69921875 59.8125 230.6875 C70.39071228 230.34867277 79.78724301 226.73679888 88 220 C88.66 220 89.32 220 90 220 C90.35680561 214.95042494 89.13989807 211.22804937 87.125 206.6875 C82.82922121 196.9140894 81.62265702 187.55790665 80.875 176.9375 C80.74544922 175.20983398 80.74544922 175.20983398 80.61328125 173.44726562 C80.40300407 170.63188777 80.19871636 167.81621341 80 165 C78.73458374 165.33040283 78.73458374 165.33040283 77.44360352 165.66748047 C58.65191115 170.4810107 41.79274732 169.95436654 24.56640625 160.69140625 C13.53868154 153.94480864 6.99893686 144.43998961 3.46020508 132.12084961 C0.71684472 119.47810613 2.52467948 106.12187798 8.6875 94.9375 C17.41876728 83.84643076 27.42451356 73.85804171 38.4375 65.05078125 C41.69481555 62.44393573 44.8475577 59.73211666 48 57 C47.37466625 54.47636012 47.37466625 54.47636012 46 52 C42.38528651 50.87937049 38.73578662 50.87179747 34.97290039 50.76171875 C23.14841981 50.36692006 16.12844321 47.85002341 7.3671875 39.56640625 C0.1200337 31.70934346 -4.48888715 23.17977681 -4.265625 12.3515625 C-3.82266747 8.43008557 -2.8921556 2.8921556 0 0 Z M375 70 C374.01 70.66 373.02 71.32 372 72 C371.37331338 76.08708662 372.45441969 78.18163639 374.75 81.5 C378.44587164 87.35252144 380.21575077 93.35466289 382 100 C382.30035156 101.08023438 382.60070312 102.16046875 382.91015625 103.2734375 C383.62093385 105.84546063 384.31760241 108.42033034 385 111 C389.37354446 104.43968331 388.69890872 94.15825912 387.375 86.5625 C386.04921429 81.2217462 383.53418407 76.22027849 380 72 C377.5837785 70.49192772 377.5837785 70.49192772 375 70 Z M464.5625 154.25 C459.28181045 161.17065524 456.16505769 169.31659999 457 178 C457.66 178.33 458.32 178.66 459 179 C459.32613281 178.51789063 459.65226562 178.03578125 459.98828125 177.5390625 C460.64376953 176.59160156 460.64376953 176.59160156 461.3125 175.625 C461.95638672 174.68527344 461.95638672 174.68527344 462.61328125 173.7265625 C464 172 464 172 467 170 C471.92348231 170.21406445 474.54057094 171.54057094 478 175 C483.84759771 181.71820779 485.21610163 188.25547854 486 197 C487.32 197 488.64 197 490 197 C492.94180324 191.48411892 492.84261381 185.43978423 491.3828125 179.48046875 C489.26254527 173.52308074 485.95338671 169.05362425 481.88671875 164.2578125 C480.3545484 162.42428359 479.06031584 160.65206409 477.8125 158.625 C475.81846485 155.73708702 473.94009577 153.91106225 471 152 C466.93700003 151.54781326 466.93700003 151.54781326 464.5625 154.25 Z M458.97265625 237.62109375 C455.66908311 239.93032409 454.0234029 242.52227626 452 246 C452 246.99 452 247.98 452 249 C458.33005806 250.19137147 462.32124164 250.19430158 468 247 C469.20272819 244.59454362 469.10071472 243.05003047 469.0625 240.375 C469.05347656 239.55773437 469.04445313 238.74046875 469.03515625 237.8984375 C469.02355469 237.27195312 469.01195312 236.64546875 469 236 C464.80694241 234.58052393 462.74284439 235.59858161 458.97265625 237.62109375 Z " fill="#8B8E8F" transform="translate(34,182)"/>
<path d="M0 0 C17.32544391 -0.09380529 34.65080758 -0.1641553 51.97644806 -0.20724869 C60.02263422 -0.22779733 68.06866179 -0.2557689 76.11474609 -0.30175781 C83.13487696 -0.34186327 90.15489287 -0.36748862 97.17513514 -0.37635398 C100.88585822 -0.38152903 104.59625268 -0.39352732 108.30686951 -0.42292023 C137.83707276 -0.64784663 137.83707276 -0.64784663 151 4 C151.79686722 4.25507828 152.59373444 4.51015656 153.41474915 4.77296448 C166.69524845 9.22129621 177.51763868 16.86701643 188 26 C188.62519531 26.54011719 189.25039063 27.08023437 189.89453125 27.63671875 C206.0604504 42.66685904 216.86072667 66.20206035 218.12475586 88.16796875 C219.0548073 115.79716055 211.60857969 139.65443501 193.8828125 161.0859375 C192.95082031 162.03339844 192.95082031 162.03339844 192 163 C191.34 163 190.68 163 190 163 C189.67 163.99 189.34 164.98 189 166 C186.89128229 167.86822418 184.79325533 169.6023025 182.5625 171.3125 C181.9243335 171.80451904 181.28616699 172.29653809 180.62866211 172.8034668 C170.04509574 180.86060769 158.22394719 187.54160256 145 190 C146.38866291 192.03281145 147.77773588 194.0653399 149.16748047 196.09741211 C150.35165903 197.83023285 151.53426622 199.56412843 152.71533203 201.29907227 C155.40107517 205.23750232 158.09538622 209.16235701 160.90234375 213.015625 C161.32459229 213.60126221 161.74684082 214.18689941 162.18188477 214.7902832 C163.30766718 216.3445402 164.44640657 217.88938841 165.5859375 219.43359375 C167 222 167 222 166.58837891 224.16040039 C166.39421387 224.76746826 166.20004883 225.37453613 166 226 C164.80246094 226.08636719 163.60492188 226.17273438 162.37109375 226.26171875 C142.0620507 227.92477855 124.42839944 234.11282112 109.63671875 248.56640625 C108 250 108 250 106 250 C104.38883088 247.65481999 102.89841654 245.31210502 101.4375 242.875 C100.62504121 241.53824514 99.81117542 240.20234468 98.99609375 238.8671875 C98.57145844 238.14813232 98.14682312 237.42907715 97.70932007 236.68823242 C96.00011346 233.90776485 96.00011346 233.90776485 93.76956177 231.12548828 C86.34168792 221.32503764 85.78167875 213.14333002 86.12109375 201.1328125 C86.13792412 199.35923528 86.1507143 197.5856156 86.15968323 195.8119812 C86.19370137 191.1913465 86.28179341 186.57334467 86.38201904 181.95373535 C86.47484731 177.22082115 86.51535171 172.48747251 86.56054688 167.75390625 C86.65645641 158.50146069 86.80962417 149.25095103 87 140 C87.68840973 139.97854416 88.37681946 139.95708832 89.08609009 139.9349823 C92.23737184 139.8325596 95.38816587 139.71910203 98.5390625 139.60546875 C99.62195557 139.57191284 100.70484863 139.53835693 101.82055664 139.50378418 C115.94905681 138.97443566 128.45967527 135.23421485 138.375 124.625 C146.49984193 114.8620851 148.93372491 104.60528633 148 92 C146.35571368 81.76058064 140.93701456 72.86650121 132.75 66.5625 C114.01628131 53.97013813 93.74059665 57.56851492 71 57 C71 124.98 71 192.96 71 263 C66.80843799 264.39718734 62.75949073 265.58779503 58.5 266.6875 C41.39920646 271.59140403 28.28662715 281.85487481 14.49658203 292.57885742 C3.6014219 301 3.6014219 301 0 301 C-0.19904668 295.6108112 -0.34351839 290.22379908 -0.43945312 284.83178711 C-0.47947371 283.00132951 -0.53391147 281.17112425 -0.60351562 279.34155273 C-1.23996376 262.1714923 -1.23996376 262.1714923 3.8515625 256.55859375 C4.55619629 255.96232178 5.26083008 255.3660498 5.98681641 254.75170898 C12.39956824 249.17185277 14.53031106 239.55239429 15.21875 231.4140625 C15.60366383 220.21948531 12.83133175 209.95961157 6 201 C5.51746462 200.5853489 5.03492924 200.1706978 4.53777158 199.74348152 C1.29378172 196.9483932 0.10766813 195.55179236 -0.73828697 191.21632576 C-0.7632911 189.76959538 -0.75563308 188.32206323 -0.7215271 186.8755188 C-0.72665365 186.07409954 -0.7317802 185.27268028 -0.7370621 184.44697559 C-0.74692075 181.76997563 -0.71398998 179.09524792 -0.68115234 176.41845703 C-0.67945938 174.49641473 -0.68041091 172.57436854 -0.68380737 170.65232849 C-0.68552856 165.43969967 -0.65025813 160.2278996 -0.60836363 155.01546335 C-0.57085047 149.5662497 -0.56733079 144.11701695 -0.56021118 138.66769409 C-0.54156411 128.35103944 -0.49232872 118.03476636 -0.43211424 107.71827972 C-0.365045 95.97234788 -0.33205902 84.22639779 -0.30194163 72.48032212 C-0.23922976 48.32000321 -0.13369717 24.16002299 0 0 Z " fill="#8B8E8F" transform="translate(111,0)"/>
<path d="M0 0 C21.759375 -0.061875 43.51875 -0.12375 65.9375 -0.1875 C72.77847412 -0.21481201 79.61944824 -0.24212402 86.66772461 -0.27026367 C95.09680176 -0.28381348 95.09680176 -0.28381348 99.05738831 -0.28633118 C101.79181393 -0.290903 104.52580629 -0.30022503 107.26014709 -0.31672668 C125.46173429 -0.42173747 142.98968575 -0.3364725 160.375 5.8125 C161.12265625 6.07111816 161.8703125 6.32973633 162.640625 6.59619141 C183.67007279 14.10475938 198.82905245 29.10630065 208.50390625 49.109375 C217.90569955 70.77559717 218.72951963 93.37188419 210.75 115.625 C206.61988336 125.75361938 201.09247879 134.31093401 194.015625 142.625 C192.25620667 144.69811307 190.60467694 146.80626444 189 149 C189.8559375 149.26039063 190.711875 149.52078125 191.59375 149.7890625 C210.84421588 156.63269143 226.80048197 172.10736206 236.375 189.875 C246.6895921 211.87751517 247.26759647 239.27370781 239.28466797 262.04003906 C233.15439442 278.7273472 221.29802419 296.36423152 206 306 C205.01 306 204.02 306 203 306 C202.5153125 304.83984375 202.030625 303.6796875 201.53125 302.484375 C197.48449738 292.97593557 193.17099134 284.34522663 187 276 C186.5457666 275.37883301 186.0915332 274.75766602 185.62353516 274.11767578 C184.11093555 272.05177134 182.58893011 269.99320447 181.0625 267.9375 C180.55549561 267.25333008 180.04849121 266.56916016 179.52612305 265.86425781 C177.17919105 262.73901994 174.81312149 259.72655901 172.125 256.88671875 C165.96289847 250.2455514 165.96289847 250.2455514 166.08203125 246.24609375 C166.84448106 243.66578332 167.82142309 241.41307171 169 239 C171.92061689 228.94514087 171.09259368 216.85487617 166.46875 207.54296875 C165.9840625 206.70378906 165.499375 205.86460937 165 205 C164.5771875 204.25363281 164.154375 203.50726563 163.71875 202.73828125 C158.38923843 194.604579 149.74466603 189.96110264 140.51245117 187.57836914 C131.81155834 186.145658 122.80925947 186.59256285 114.01367188 186.63964844 C111.35752502 186.64824129 108.70288852 186.62652562 106.046875 186.6015625 C104.84040314 186.62157822 104.84040314 186.62157822 103.60955811 186.64199829 C98.86822903 186.5802515 95.03410921 185.92534799 91.28689575 182.86376953 C88.39326366 178.67301568 89.16653739 173.3638958 89.31640625 168.48046875 C89.32631088 167.26676102 89.33621552 166.05305328 89.34642029 164.80256653 C89.38557566 160.92964371 89.47341249 157.05956477 89.5625 153.1875 C89.59761179 150.56058783 89.629551 147.93363119 89.65820312 145.30664062 C89.73534226 138.87012501 89.85244799 132.43526565 90 126 C91.30502472 125.97537689 91.30502472 125.97537689 92.63641357 125.95025635 C95.03541205 125.90499223 97.43439854 125.85908882 99.83337402 125.81262207 C101.73310811 125.77780255 103.63291166 125.74555682 105.53283691 125.72351074 C118.14244837 125.57516237 128.6604602 123.59468861 137.8671875 114.55078125 C143.78300293 107.47563935 146.41929357 99.18634093 146 90 C144.4865778 78.77184866 139.71511246 70.60959653 131.015625 63.4375 C114.97253479 51.99591629 85.15124175 57.30763569 71 57 C71 94.62 71 132.24 71 171 C67.37 170.34 63.74 169.68 60 169 C56.18210397 168.66917253 52.39381816 168.66493439 48.5625 168.6875 C47.04982544 168.69595947 47.04982544 168.69595947 45.5065918 168.70458984 C29.4007414 168.96740443 17.42585379 174.81051529 4.1796875 183.6796875 C2 185 2 185 0 185 C0 123.95 0 62.9 0 0 Z " fill="#8B8F8F" transform="translate(352,0)"/>
<path d="M0 0 C1.22265625 1.71484375 1.22265625 1.71484375 2.0625 3.9375 C2.37832031 4.73929687 2.69414062 5.54109375 3.01953125 6.3671875 C3.50486328 7.67042969 3.50486328 7.67042969 4 9 C4.74769207 10.85509854 5.49762995 12.70929377 6.25 14.5625 C6.83508838 16.04097333 7.41907792 17.51988469 8 19 C4.70405535 24.15886988 0.70013106 26.24035363 -5 28 C-8.05873308 28.58056797 -9.82176893 28.48481491 -13 28 C-17.12933756 23.63813664 -19.51914845 18.36576497 -22.21875 13.05859375 C-23.82451405 9.95290523 -23.82451405 9.95290523 -26.28125 7.91015625 C-26.8484375 7.27980469 -27.415625 6.64945312 -28 6 C-27.60742188 3.38061523 -27.60742188 3.38061523 -27 1 C-23.43862392 0.63386885 -19.87581472 0.28421298 -16.3125 -0.0625 C-15.30509766 -0.16626953 -14.29769531 -0.27003906 -13.25976562 -0.37695312 C-11.79506836 -0.51713867 -11.79506836 -0.51713867 -10.30078125 -0.66015625 C-8.95753784 -0.79369507 -8.95753784 -0.79369507 -7.5871582 -0.92993164 C-4.8671692 -1.00359747 -2.61841814 -0.73290651 0 0 Z " fill="#8B8E8F" transform="translate(352,428)"/>
<path d="M0 0 C2.99171019 2.27771229 5.35982707 4.60437043 7 8 C6.76778263 14.35182797 4.98373595 20.30434651 3.1875 26.375 C2.93935547 27.27605469 2.69121094 28.17710937 2.43554688 29.10546875 C2.18224609 29.96527344 1.92894531 30.82507813 1.66796875 31.7109375 C1.44391357 32.48743652 1.2198584 33.26393555 0.98901367 34.06396484 C-0.28442726 36.55677811 -1.36865325 37.13156974 -4 38 C-7.19921875 37.35546875 -7.19921875 37.35546875 -10.6875 36.1875 C-11.84636719 35.80980469 -13.00523438 35.43210937 -14.19921875 35.04296875 C-17 34 -17 34 -18 33 C-18.30824312 29.60932563 -18.41016357 27.63888749 -16.54296875 24.73046875 C-14.67697533 21.42836901 -14.42597737 18.8238782 -14.0625 15.0625 C-13.36833827 9.53812955 -12.76895079 6.11158268 -9 2 C-5.40068251 -0.399545 -4.23696577 -0.81480111 0 0 Z " fill="#8B8E8F" transform="translate(18,460)"/>
<path d="M0 0 C2.96938481 1.78163088 4.60151393 2.99412987 5.88671875 6.23828125 C6.04759834 10.16041463 4.23347487 12.46400029 2 15.5 C1.58645264 16.07516357 1.17290527 16.65032715 0.74682617 17.24291992 C-3.13186048 22.46908938 -6.47730402 26.1927155 -13 27.6875 C-17.39248606 26.68088861 -20.26324515 24.57581723 -23 21 C-23.6875 17.4375 -23.6875 17.4375 -23 14 C-20.17396689 9.85157136 -16.71080777 7.01649824 -12.625 4.1875 C-12.07328125 3.78080078 -11.5215625 3.37410156 -10.953125 2.95507812 C-7.17756551 0.31839046 -4.58018326 -0.60896355 0 0 Z " fill="#8B8F8F" transform="translate(46,436)"/>
</svg>
