<?xml version="1.0" encoding="UTF-8"?>
<svg version="1.1" xmlns="http://www.w3.org/2000/svg" width="419" height="236">
<path d="M0 0 C1.12237564 -0.0076664 1.12237564 -0.0076664 2.26742554 -0.01548767 C4.74143462 -0.02939167 7.21516548 -0.02842673 9.68920898 -0.02612305 C11.40649011 -0.03000874 13.12377028 -0.03434314 14.84104919 -0.03910828 C18.43980018 -0.04657163 22.03845306 -0.0462778 25.63720703 -0.04101562 C30.25673217 -0.0352122 34.87585752 -0.0521723 39.49531651 -0.0753603 C43.04085145 -0.0900641 46.58628926 -0.09097409 50.13184929 -0.08785057 C51.83555838 -0.08836519 53.53927272 -0.09362922 55.24295235 -0.10366249 C57.62056934 -0.11594888 59.99739641 -0.10928365 62.375 -0.09765625 C63.08310318 -0.10529999 63.79120636 -0.11294373 64.52076721 -0.12081909 C66.47926331 -0.0995636 66.47926331 -0.0995636 69.62280273 0.2746582 C71.660186 3.33073311 71.87510916 3.95295285 71.90127563 7.3938446 C71.91243912 8.23096985 71.9236026 9.06809509 71.93510437 9.93058777 C71.93726456 10.84552505 71.93942474 11.76046234 71.94165039 12.703125 C71.95169601 13.66916656 71.96174164 14.63520813 71.97209167 15.63052368 C72.00301864 18.82830197 72.01998531 22.02599618 72.03686523 25.22387695 C72.05556922 27.43920113 72.07514205 29.65451814 72.09555054 31.86982727 C72.14695897 37.70427219 72.18653808 43.53874024 72.22369385 49.37329102 C72.26367891 55.32549805 72.3147963 61.27760818 72.36499023 67.22973633 C72.46185267 78.91130897 72.54622442 90.59293622 72.62280273 102.2746582 C75.78396049 100.90482318 76.61551193 100.28559441 78.62280273 97.2746582 C79.11780273 95.7896582 79.11780273 95.7896582 79.62280273 94.2746582 C80.61280273 94.2746582 81.60280273 94.2746582 82.62280273 94.2746582 C83.28280273 92.6246582 83.94280273 90.9746582 84.62280273 89.2746582 C85.28280273 89.2746582 85.94280273 89.2746582 86.62280273 89.2746582 C87.61280273 87.2946582 88.60280273 85.3146582 89.62280273 83.2746582 C90.28280273 83.2746582 90.94280273 83.2746582 91.62280273 83.2746582 C92.61280273 80.9646582 93.60280273 78.6546582 94.62280273 76.2746582 C95.28280273 76.2746582 95.94280273 76.2746582 96.62280273 76.2746582 C97.17967773 74.9443457 97.17967773 74.9443457 97.74780273 73.5871582 C99.39929465 70.66952249 100.24983734 69.55670784 102.74780273 67.5871582 C105.83902434 65.52770723 105.83902434 65.52770723 106.62280273 62.2746582 C107.60033917 61.25268829 108.60339084 60.25486195 109.62280273 59.2746582 C110.07655273 58.6559082 110.53030273 58.0371582 110.99780273 57.3996582 C112.62280273 55.2746582 112.62280273 55.2746582 114.81030273 53.1496582 C119.37500767 48.68266866 124.58975438 43.37380327 126.62280273 37.2746582 C127.74820375 36.11515412 128.8805613 34.96169378 130.04467773 33.84106445 C137.07089243 26.86702462 143.30734311 19.02860438 149.23999023 11.1184082 C153.43659584 5.52293407 153.43659584 5.52293407 157.31030273 4.7121582 C158.40342773 4.5677832 159.49655273 4.4234082 160.62280273 4.2746582 C161.93154058 3.79379566 163.234007 3.29570928 164.53173828 2.78588867 C170.43551121 0.78406079 176.20507192 0.74292569 182.39233398 0.6574707 C183.59089523 0.63240448 184.78945648 0.60733826 186.02433777 0.58151245 C188.54295478 0.53276747 191.06171883 0.4911506 193.58056641 0.45629883 C197.44110403 0.39957296 201.30005251 0.31118904 205.15991211 0.2199707 C207.61235307 0.17640493 210.06482745 0.13467392 212.51733398 0.0949707 C213.67151321 0.06702423 214.82569244 0.03907776 216.0148468 0.01028442 C217.08663681 -0.00027985 218.15842682 -0.01084412 219.26269531 -0.02172852 C220.67425652 -0.04479568 220.67425652 -0.04479568 222.11433411 -0.06832886 C225.33227116 0.37166499 226.53431058 0.74195897 228.62280273 3.2746582 C229.20920147 6.323116 229.12709251 9.33261897 229.0769043 12.42773438 C229.0774884 13.36451523 229.07807251 14.30129608 229.07867432 15.26646423 C229.07588444 18.36722691 229.0447494 21.46703192 229.01342773 24.56762695 C229.00596857 26.71567764 229.00027411 28.86373513 228.99627686 31.01179504 C228.98099505 36.66892239 228.941691 42.32563976 228.89746094 47.98260498 C228.8565633 53.75372776 228.8382776 59.5249167 228.81811523 65.29614258 C228.77519946 76.62249471 228.70691712 87.94854238 228.62280273 99.2746582 C229.61280273 96.9646582 230.60280273 94.6546582 231.62280273 92.2746582 C232.28280273 92.2746582 232.94280273 92.2746582 233.62280273 92.2746582 C234.61280273 90.2946582 235.60280273 88.3146582 236.62280273 86.2746582 C237.28280273 86.2746582 237.94280273 86.2746582 238.62280273 86.2746582 C240.24880687 83.73827293 241.6500981 81.10930612 243.08764648 78.4621582 C243.59424805 77.7402832 244.10084961 77.0184082 244.62280273 76.2746582 C245.61280273 76.2746582 246.60280273 76.2746582 247.62280273 76.2746582 C247.96311523 74.9443457 247.96311523 74.9443457 248.31030273 73.5871582 C249.82475901 69.76495902 251.6987579 68.13070199 254.62280273 65.2746582 C255.99877009 63.17139382 257.26921877 61.03455698 258.50952148 58.84887695 C259.0605957 58.06963867 259.0605957 58.06963867 259.62280273 57.2746582 C260.28280273 57.2746582 260.94280273 57.2746582 261.62280273 57.2746582 C262.28280273 55.2946582 262.94280273 53.3146582 263.62280273 51.2746582 C260.92097218 49.92374293 258.50472067 49.93607762 255.49780273 49.7121582 C254.40209961 49.62836914 253.30639648 49.54458008 252.17749023 49.45825195 C251.33444336 49.39766602 250.49139648 49.33708008 249.62280273 49.2746582 C249.95280273 47.2946582 250.28280273 45.3146582 250.62280273 43.2746582 C252.10780273 42.7796582 252.10780273 42.7796582 253.62280273 42.2746582 C255.48282568 40.12263794 257.22045014 37.97453273 258.93530273 35.7121582 C259.6733313 34.75587524 259.6733313 34.75587524 260.42626953 33.78027344 C263.41903417 29.89259652 266.36278527 25.96899674 269.27514648 22.02075195 C271.23626195 19.47982843 273.36557486 17.09672997 275.52124023 14.7199707 C276.82486031 13.31242085 276.82486031 13.31242085 276.62280273 11.2746582 C277.40655273 10.6559082 278.19030273 10.0371582 278.99780273 9.3996582 C281.67883855 7.5289746 281.67883855 7.5289746 282.68530273 5.1496582 C283.93131529 2.65763308 285.05957549 2.30256374 287.62280273 1.2746582 C289.92102242 1.01015186 289.92102242 1.01015186 292.49417114 0.98945618 C293.47282135 0.97684753 294.45147156 0.96423889 295.45977783 0.95124817 C297.06052155 0.94565132 297.06052155 0.94565132 298.69360352 0.93994141 C299.82238922 0.92828949 300.95117493 0.91663757 302.11416626 0.90463257 C305.84880077 0.8686178 309.58337022 0.84677397 313.31811523 0.82543945 C315.90836165 0.80419345 318.49860224 0.78222661 321.08883667 0.75956726 C326.51761504 0.71414957 331.94638057 0.67512263 337.37524414 0.64160156 C343.65559912 0.60276292 349.93580308 0.55348577 356.21603405 0.49827129 C362.25588644 0.44527499 368.29576451 0.39818276 374.33568954 0.35408592 C376.90742828 0.33498737 379.47915792 0.31462312 382.05087662 0.29299355 C385.63750273 0.26394692 389.2241066 0.24157449 392.81079102 0.22119141 C393.88200195 0.21138748 394.95321289 0.20158356 396.05688477 0.19148254 C397.02989532 0.18733337 398.00290588 0.1831842 399.00540161 0.1789093 C399.85378664 0.1732108 400.70217167 0.1675123 401.57626534 0.16164112 C403.62280273 0.2746582 403.62280273 0.2746582 405.62280273 1.2746582 C405.32348594 6.06372686 402.90263102 8.81833191 399.99780273 12.4074707 C398.43249409 14.3324085 398.43249409 14.3324085 397.62280273 17.2746582 C396.2894694 17.94132487 394.95613607 18.60799154 393.62280273 19.2746582 C393.29280273 20.2646582 392.96280273 21.2546582 392.62280273 22.2746582 C391.96280273 22.9346582 391.30280273 23.5946582 390.62280273 24.2746582 C389.96280273 25.2646582 389.30280273 26.2546582 388.62280273 27.2746582 C386.95613607 28.94132487 385.2894694 30.60799154 383.62280273 32.2746582 C380.09377262 35.95124095 380.09377262 35.95124095 378.06030273 40.5246582 C377.91592773 41.1021582 377.77155273 41.6796582 377.62280273 42.2746582 C377.02725586 42.5530957 376.43170898 42.8315332 375.81811523 43.1184082 C373.12737783 44.53559374 371.90822676 46.11397546 370.06030273 48.5246582 C369.36678711 49.41797852 368.67327148 50.31129883 367.95874023 51.23168945 C367.18788086 52.23586914 366.41702148 53.24004883 365.62280273 54.2746582 C363.81586929 56.59153632 362.00033824 58.90162526 360.18530273 61.2121582 C359.72260986 61.80391846 359.25991699 62.39567871 358.78320312 63.00537109 C355.04807321 67.77191583 351.20465113 72.43641465 347.30249023 77.06762695 C345.44979022 79.25552802 345.44979022 79.25552802 344.62280273 82.2746582 C343.38530273 83.4812207 343.38530273 83.4812207 342.12280273 84.7121582 C339.78187126 87.11161297 338.98154261 88.04599934 338.62280273 91.2746582 C337.96280273 91.2746582 337.30280273 91.2746582 336.62280273 91.2746582 C336.29280273 91.9346582 335.96280273 92.5946582 335.62280273 93.2746582 C334.38530273 94.4812207 334.38530273 94.4812207 333.12280273 95.7121582 C330.44343636 98.08586057 330.44343636 98.08586057 329.62280273 101.2746582 C328.79780273 101.9140332 327.97280273 102.5534082 327.12280273 103.2121582 C322.952331 106.52663813 320.115636 110.79504568 316.99780273 115.0715332 C314.69094849 118.1827511 312.28465644 121.17066657 309.81030273 124.1496582 C306.35891212 128.32385314 303.05500688 132.41024991 300.62280273 137.2746582 C299.96280273 137.9346582 299.30280273 138.5946582 298.62280273 139.2746582 C298.29280273 140.2646582 297.96280273 141.2546582 297.62280273 142.2746582 C297.04530273 142.5221582 296.46780273 142.7696582 295.87280273 143.0246582 C292.43072518 144.93692351 290.74613282 148.03188538 288.62280273 151.2746582 C286.62280273 154.2746582 286.62280273 154.2746582 284.06030273 156.7746582 C281.43889616 159.0999499 281.43889616 159.0999499 280.62280273 162.2746582 C279.470596 163.46075338 278.31217408 164.64145861 277.12280273 165.7902832 C271.94015825 170.91894181 267.44556895 176.68490325 262.93530273 182.3996582 C262.47172363 182.98545654 262.00814453 183.57125488 261.53051758 184.17480469 C258.71539528 187.76942918 256.12421648 191.4509112 253.62280273 195.2746582 C252.62280273 196.60799154 251.62280273 197.94132487 250.62280273 199.2746582 C250.29280273 199.9346582 249.96280273 200.5946582 249.62280273 201.2746582 C248.96280273 201.9346582 248.30280273 202.5946582 247.62280273 203.2746582 C246.96280273 204.2646582 246.30280273 205.2546582 245.62280273 206.2746582 C243.97022379 207.95529451 242.30157253 209.6201832 240.62280273 211.2746582 C238.88036808 213.116362 237.15119661 214.97070178 235.43530273 216.8371582 C234.1455957 218.2312793 234.1455957 218.2312793 232.82983398 219.65356445 C230.61643146 222.07225833 230.61643146 222.07225833 229.54467773 224.4465332 C227.74137453 228.02257515 224.15628638 229.65743339 220.62280273 231.2746582 C217.62544365 231.99202244 214.69512919 232.13652259 211.62280273 232.2746582 C209.43484739 232.45676788 207.24734659 232.64441051 205.06030273 232.8371582 C203.24790296 232.98423184 201.43543723 233.13050622 199.62280273 233.2746582 C200.28280273 233.9346582 200.94280273 234.5946582 201.62280273 235.2746582 C199.33138987 235.32850341 197.03962085 235.36737907 194.74780273 235.3996582 C193.47163086 235.42286133 192.19545898 235.44606445 190.88061523 235.4699707 C187.62280273 235.2746582 187.62280273 235.2746582 185.62280273 233.2746582 C182.78834674 233.12371866 180.0522375 233.09174093 177.22045898 233.1496582 C176.38695419 233.15723145 175.5534494 233.16480469 174.69468689 233.17260742 C171.1210871 233.20537913 167.54794018 233.2616056 163.97460938 233.31567383 C161.36908063 233.35177925 158.76362571 233.3760102 156.15795898 233.3996582 C154.94379051 233.42455322 154.94379051 233.42455322 153.70509338 233.44995117 C149.80172404 233.48414713 147.94925603 233.49229373 144.62280273 231.2746582 C144.3367515 228.25439369 144.24484478 225.44013336 144.28222656 222.41870117 C144.28178848 221.50157349 144.2813504 220.5844458 144.28089905 219.63952637 C144.28299441 216.59841863 144.30636071 213.55785751 144.32983398 210.5168457 C144.33542728 208.41220399 144.33969863 206.30755838 144.34269714 204.20291138 C144.35416689 198.65599842 144.38365242 193.10932008 144.41680908 187.5625 C144.44746409 181.90538711 144.4611927 176.24823641 144.47631836 170.59106445 C144.50852006 159.48549246 144.55974212 148.38009482 144.62280273 137.2746582 C143.39012925 138.28301882 143.39012925 138.28301882 143.52514648 140.34106445 C143.54254883 141.57663086 143.54254883 141.57663086 143.56030273 142.8371582 C143.56932617 143.66344727 143.57834961 144.48973633 143.58764648 145.34106445 C143.59924805 145.97915039 143.61084961 146.61723633 143.62280273 147.2746582 C142.96280273 145.9546582 142.30280273 144.6346582 141.62280273 143.2746582 C138.32817491 143.98003038 138.32817491 143.98003038 137.12280273 147.2746582 C136.62780273 148.2646582 136.13280273 149.2546582 135.62280273 150.2746582 C134.63280273 150.6046582 133.64280273 150.9346582 132.62280273 151.2746582 C131.40410345 153.77913336 131.40410345 153.77913336 130.62280273 156.2746582 C129.96280273 156.2746582 129.30280273 156.2746582 128.62280273 156.2746582 C124.63907376 160.74664366 121.29710222 165.92605923 118.62280273 171.2746582 C117.79780273 172.0790332 116.97280273 172.8834082 116.12280273 173.7121582 C113.44343636 176.08586057 113.44343636 176.08586057 112.62280273 179.2746582 C110.96671915 180.62111381 109.29834431 181.95249483 107.62280273 183.2746582 C99.25692263 192.41246702 99.25692263 192.41246702 93.62280273 203.2746582 C92.63280273 203.6046582 91.64280273 203.9346582 90.62280273 204.2746582 C90.62280273 204.9346582 90.62280273 205.5946582 90.62280273 206.2746582 C89.31079869 207.62898496 87.9764887 208.96199303 86.62280273 210.2746582 C86.29280273 210.9346582 85.96280273 211.5946582 85.62280273 212.2746582 C83.95900221 213.94418609 82.29185546 215.61038102 80.62280273 217.2746582 C79.03476967 219.10700404 77.47187284 220.96144698 75.93530273 222.8371582 C75.16831055 223.76657227 74.40131836 224.69598633 73.61108398 225.65356445 C71.59552027 228.10552277 71.59552027 228.10552277 70.60327148 230.55200195 C69.62280273 232.2746582 69.62280273 232.2746582 68.00575256 232.87324524 C64.81987606 233.40991291 61.74672249 233.41029009 58.51513672 233.41992188 C57.4534729 233.42495979 57.4534729 233.42495979 56.37036133 233.43009949 C54.03652176 233.4395799 51.7027541 233.44155084 49.36889648 233.44262695 C47.74512197 233.44584052 46.12134775 233.44920467 44.49757385 233.45271301 C41.09733407 233.45869624 37.69711968 233.46055364 34.296875 233.45996094 C29.93651728 233.45985912 25.57632169 233.47353487 21.21600246 233.49073315 C17.86431629 233.5018391 14.51266957 233.50388061 11.16096687 233.50335121 C9.55298362 233.50453254 7.94499938 233.50896288 6.33703423 233.51668358 C4.09159756 233.52645935 1.84651637 233.52361564 -0.39892578 233.51757812 C-1.67703629 233.51900314 -2.95514679 233.52042816 -4.27198792 233.52189636 C-7.37719727 233.2746582 -7.37719727 233.2746582 -10.37719727 231.2746582 C-10.77760696 229.39022923 -10.77760696 229.39022923 -10.8135376 227.03700256 C-10.8444109 225.68865043 -10.8444109 225.68865043 -10.8759079 224.31305885 C-10.88310097 223.31433439 -10.89029404 222.31560993 -10.89770508 221.28662109 C-10.92577618 219.69126557 -10.92577618 219.69126557 -10.95441437 218.06368065 C-11.01253088 214.43742973 -11.04708736 210.81137404 -11.08032227 207.18481445 C-11.11384933 204.56567444 -11.1477345 201.946539 -11.1819458 199.32740784 C-11.61129204 163.6952485 -11.38038768 128.05609442 -11.17347002 92.42320979 C-11.12910434 84.56278528 -11.10120198 76.70235644 -11.07625175 68.84184974 C-11.05112407 61.16079493 -11.01462921 53.47984902 -10.96916604 45.79888779 C-10.94247467 41.25460779 -10.92041439 36.71042412 -10.91014862 32.16607475 C-10.90027137 27.94716749 -10.87633821 23.72857988 -10.84121513 19.50980949 C-10.83079007 17.96418355 -10.82550752 16.41851342 -10.82564735 14.87285233 C-10.82505982 12.7722036 -10.80625774 10.67250347 -10.78265381 8.57200623 C-10.77674603 7.39684165 -10.77083824 6.22167707 -10.76475143 5.01090145 C-10.63685856 4.10794118 -10.50896568 3.20498091 -10.37719727 2.2746582 C-6.77289609 -0.12820924 -4.16301852 -0.01460677 0 0 Z M72.62280273 104.2746582 C73.62280273 106.2746582 73.62280273 106.2746582 73.62280273 106.2746582 Z " fill="#FCFCFD" transform="translate(11.377197265625,0.725341796875)"/>
<path d="M0 0 C0.3719368 1.78662872 0.3719368 1.78662872 0.36749268 3.98547363 C0.37584641 5.23476402 0.37584641 5.23476402 0.3843689 6.5092926 C0.37515411 7.42468307 0.36593933 8.34007355 0.35644531 9.28320312 C0.35951187 10.72722755 0.35951187 10.72722755 0.36264038 12.20042419 C0.36565746 15.39422371 0.34714336 18.58751154 0.328125 21.78125 C0.3250689 23.99320345 0.32319165 26.20515882 0.32244873 28.41711426 C0.31783982 33.05761047 0.30339138 37.69793371 0.28125 42.33837891 C0.2529672 48.29740123 0.24203916 54.25628712 0.2375679 60.21537018 C0.23341777 64.7842954 0.22360368 69.35319282 0.21169281 73.92210388 C0.20598105 76.11982499 0.20122535 78.3175488 0.19742584 80.51527405 C0.19057725 83.58249647 0.17695141 86.64960926 0.16113281 89.71679688 C0.16001495 90.63218735 0.15889709 91.54757782 0.15774536 92.4907074 C0.11468987 98.77062026 0.11468987 98.77062026 -1 101 C-1.99 101 -2.98 101 -4 101 C-4 67.34 -4 33.68 -4 -1 C-22.15 -1 -40.3 -1 -59 -1 C-59 -1.33 -59 -1.66 -59 -2 C-51.66779741 -2.16829155 -44.33544611 -2.32816978 -37.00292969 -2.48217773 C-34.50809568 -2.53557354 -32.01330225 -2.590901 -29.51855469 -2.64819336 C-25.93433378 -2.73017136 -22.35002477 -2.80521997 -18.765625 -2.87890625 C-17.64883362 -2.90594131 -16.53204224 -2.93297638 -15.38140869 -2.96083069 C-14.34063171 -2.98092697 -13.29985474 -3.00102325 -12.22753906 -3.02172852 C-11.31264709 -3.04171402 -10.39775513 -3.06169952 -9.45513916 -3.08229065 C-5.44378153 -2.94783912 -3.37462159 -2.24974772 0 0 Z " fill="#A5A7BF" transform="translate(240,4)"/>
<path d="M0 0 C0.99 0.495 0.99 0.495 2 1 C2.01030746 2.25423264 2.02061493 3.50846527 2.03123474 4.80070496 C2.12895866 16.61626073 2.23169188 28.43176373 2.33933926 40.24723339 C2.39452151 46.32178635 2.44793407 52.39634416 2.49731445 58.47094727 C2.54502719 64.33241769 2.59737261 70.19383006 2.65294075 76.05523109 C2.67333297 78.29232654 2.69205119 80.52943789 2.70907402 82.76656151 C2.7331873 85.89806238 2.76323255 89.02945404 2.79467773 92.16088867 C2.8004332 93.08733688 2.80618866 94.0137851 2.81211853 94.9683075 C2.85933912 99.10098352 2.95865355 102.9705923 4 107 C2.02 107.495 2.02 107.495 0 108 C0 72.36 0 36.72 0 0 Z " fill="#8993BC" transform="translate(81,3)"/>
<path d="M0 0 C0.99 0 1.98 0 3 0 C3.66 31.68 4.32 63.36 5 96 C11.6 96.33 18.2 96.66 25 97 C26.98 97.33 28.96 97.66 31 98 C31 98.33 31 98.66 31 99 C26.56255461 99.05793591 22.12520611 99.09357467 17.6875 99.125 C16.42486328 99.14175781 15.16222656 99.15851563 13.86132812 99.17578125 C12.04858398 99.18544922 12.04858398 99.18544922 10.19921875 99.1953125 C9.08377686 99.20578613 7.96833496 99.21625977 6.8190918 99.22705078 C4 99 4 99 1 97 C0.71394877 93.97973549 0.62204205 91.16547516 0.65942383 88.14404297 C0.65898575 87.22691528 0.65854767 86.3097876 0.65809631 85.36486816 C0.66019168 82.32376043 0.68355798 79.2831993 0.70703125 76.2421875 C0.71262454 74.13754579 0.7168959 72.03290018 0.71989441 69.92825317 C0.73136416 64.38134021 0.76084969 58.83466188 0.79400635 53.2878418 C0.82466135 47.63072891 0.83838996 41.97357821 0.85351562 36.31640625 C0.88571732 25.21083426 0.93693939 14.10543662 1 3 C0.34 3 -0.32 3 -1 3 C-0.67 2.01 -0.34 1.02 0 0 Z " fill="#B4BBCE" transform="translate(155,135)"/>
<path d="M0 0 C0 3.17894643 -0.38592159 3.96764477 -2 6.5625 C-4.16763119 9.62528535 -4.16763119 9.62528535 -4 12 C-4.66 12 -5.32 12 -6 12 C-6 12.66 -6 13.32 -6 14 C-7.32 14 -8.64 14 -10 14 C-10 14.99 -10 15.98 -10 17 C-5.05 17 -0.1 17 5 17 C5 21.44867265 4.27299063 23.23780861 2 27 C0.37373596 28.38232443 -1.2925002 29.71937515 -3 31 C-4.76323505 33.12603185 -4.76323505 33.12603185 -6 35 C-6.66 34.67 -7.32 34.34 -8 34 C-7.21718695 32.66144944 -6.42348123 31.32926356 -5.625 30 C-5.18414062 29.2575 -4.74328125 28.515 -4.2890625 27.75 C-3.86367188 27.1725 -3.43828125 26.595 -3 26 C-2.34 26 -1.68 26 -1 26 C-0.34 24.02 0.32 22.04 1 20 C-1.70183055 18.64908472 -4.11808206 18.66141942 -7.125 18.4375 C-8.76855469 18.31181641 -8.76855469 18.31181641 -10.4453125 18.18359375 C-11.70988281 18.09271484 -11.70988281 18.09271484 -13 18 C-12.67 16.02 -12.34 14.04 -12 12 C-11.01 11.67 -10.02 11.34 -9 11 C-7.37468352 9.20064272 -5.81921756 7.33727432 -4.3125 5.4375 C-3.50425781 4.42558594 -2.69601562 3.41367187 -1.86328125 2.37109375 C-1.24839844 1.58863281 -0.63351562 0.80617187 0 0 Z " fill="#A8ABC5" transform="translate(274,32)"/>
<path d="M0 0 C37.29 0 74.58 0 113 0 C113 0.33 113 0.66 113 1 C75.71 1 38.42 1 0 1 C0 0.67 0 0.34 0 0 Z " fill="#B2C2D4" transform="translate(299,0)"/>
<path d="M0 0 C0.33 0 0.66 0 1 0 C1 30.36 1 60.72 1 92 C0.67 92 0.34 92 0 92 C0 61.64 0 31.28 0 0 Z " fill="#90B2EC" transform="translate(84,8)"/>
<path d="M0 0 C0.33 0 0.66 0 1 0 C1 25.41 1 50.82 1 77 C0.67 77 0.34 77 0 77 C0 51.59 0 26.18 0 0 Z " fill="#D5DFEC" transform="translate(155,149)"/>
<path d="M0 0 C1.32 0.33 2.64 0.66 4 1 C3.01 2.98 2.02 4.96 1 7 C0.34 7 -0.32 7 -1 7 C-2.8597711 9.59240819 -4.57205423 12.14410847 -6 15 C-7.15105345 16.15105345 -8.30423533 17.30006707 -9.46875 18.4375 C-11.88115098 20.89913365 -14.10503606 23.52033605 -16.3515625 26.1328125 C-17.84464982 27.82403463 -19.38585753 29.42498825 -21 31 C-20.45140643 26.85615931 -18.16776091 24.5400384 -15.5 21.4375 C-12.11462202 17.5817656 -12.11462202 17.5817656 -10 13 C-9.34 13 -8.68 13 -8 13 C-8 12.01 -8 11.02 -8 10 C-7.01 10 -6.02 10 -5 10 C-5 9.34 -5 8.68 -5 8 C-4.34 8 -3.68 8 -3 8 C-2.67 7.01 -2.34 6.02 -2 5 C-1.34 5 -0.68 5 0 5 C0 3.35 0 1.7 0 0 Z " fill="#A1A6BE" transform="translate(298,148)"/>
<path d="M0 0 C23.43 0 46.86 0 71 0 C71 0.33 71 0.66 71 1 C47.57 1 24.14 1 0 1 C0 0.67 0 0.34 0 0 Z " fill="#B0B3B8" transform="translate(6,0)"/>
<path d="M0 0 C7.27334836 -0.02560936 14.54668486 -0.04297435 21.82006836 -0.05493164 C24.28817174 -0.05992291 26.75627222 -0.06671828 29.22436523 -0.07543945 C55.52660199 -0.16597155 55.52660199 -0.16597155 68 1 C68 1.33 68 1.66 68 2 C34.34 1.505 34.34 1.505 0 1 C0 0.67 0 0.34 0 0 Z " fill="#EBF1F2" transform="translate(9,234)"/>
<path d="M0 0 C0.33 0.66 0.66 1.32 1 2 C0.38125 2.721875 -0.2375 3.44375 -0.875 4.1875 C-3.07308036 6.8245233 -3.07308036 6.8245233 -4 9.625 C-5.19416673 12.46114599 -6.57952657 13.18464493 -9 15 C-9.70211894 16.65204456 -10.36971413 18.31923769 -11 20 C-12.4375 21.8125 -12.4375 21.8125 -14 23 C-14.99 23 -15.98 23 -17 23 C-15.01260514 18.51535506 -11.89069889 15.08375182 -8.77734375 11.33984375 C-6.83606363 9.04489643 -6.83606363 9.04489643 -6 6 C-4.37446717 4.29319053 -2.70884005 2.62339805 -1 1 C-0.67 0.67 -0.34 0.34 0 0 Z " fill="#A8ABC1" transform="translate(144,32)"/>
<path d="M0 0 C7.92 0 15.84 0 24 0 C24 0.66 24 1.32 24 2 C24.66 2.66 25.32 3.32 26 4 C23.70858714 4.05384521 21.41681812 4.09272087 19.125 4.125 C17.21074219 4.15980469 17.21074219 4.15980469 15.2578125 4.1953125 C12 4 12 4 10 2 C7.56747339 1.53837573 7.56747339 1.53837573 4.875 1.375 C3.96492187 1.30023438 3.05484375 1.22546875 2.1171875 1.1484375 C1.41851562 1.09945312 0.71984375 1.05046875 0 1 C0 0.67 0 0.34 0 0 Z " fill="#A8AAB7" transform="translate(187,232)"/>
<path d="M0 0 C16.83 0 33.66 0 51 0 C51 0.33 51 0.66 51 1 C34.17 1 17.34 1 0 1 C0 0.67 0 0.34 0 0 Z " fill="#B3BCD3" transform="translate(181,0)"/>
<path d="M0 0 C12.54 0 25.08 0 38 0 C38 0.33 38 0.66 38 1 C25.46 1 12.92 1 0 1 C0 0.67 0 0.34 0 0 Z " fill="#9A9FAB" transform="translate(159,235)"/>
<path d="M0 0 C1.32 0 2.64 0 4 0 C2.55575365 3.23861303 0.74227753 5.61969163 -1.625 8.25 C-2.25664063 8.95640625 -2.88828125 9.6628125 -3.5390625 10.390625 C-4.02117187 10.92171875 -4.50328125 11.4528125 -5 12 C-5.66 10.68 -6.32 9.36 -7 8 C-6.38125 7.731875 -5.7625 7.46375 -5.125 7.1875 C-1.98388191 5.4321693 -1.11445712 3.34337135 0 0 Z " fill="#8A8CBC" transform="translate(91,95)"/>
<path d="M0 0 C0.99 0 1.98 0 3 0 C3.07654536 4.51617599 3.10228696 8.59085217 2 13 C1.67 13 1.34 13 1 13 C1 9.7 1 6.4 1 3 C0.34 3 -0.32 3 -1 3 C-0.67 2.01 -0.34 1.02 0 0 Z " fill="#757DA2" transform="translate(155,135)"/>
<path d="M0 0 C0.33 0.66 0.66 1.32 1 2 C0.22265625 3.7265625 0.22265625 3.7265625 -0.9375 5.625 C-1.618125 6.73875 -2.29875 7.8525 -3 9 C-2.34 9.33 -1.68 9.66 -1 10 C-2.65 10 -4.3 10 -6 10 C-5.67 8.02 -5.34 6.04 -5 4 C-4.01 3.67 -3.02 3.34 -2 3 C-1.34 2.01 -0.68 1.02 0 0 Z " fill="#8485B8" transform="translate(267,40)"/>
<path d="M0 0 C0.33 0 0.66 0 1 0 C1 4.29 1 8.58 1 13 C0.01 13 -0.98 13 -2 13 C-2 10.69 -2 8.38 -2 6 C-1.67 6 -1.34 6 -1 6 C-0.67 4.02 -0.34 2.04 0 0 Z " fill="#5557B5" transform="translate(239,90)"/>
<path d="M0 0 C0.66 1.32 1.32 2.64 2 4 C0.75 5.5625 0.75 5.5625 -1 7 C-3.1875 6.6875 -3.1875 6.6875 -5 6 C-3.35 4.02 -1.7 2.04 0 0 Z " fill="#EFF2F8" transform="translate(94,97)"/>
<path d="M0 0 C0.33 0 0.66 0 1 0 C1 3.96 1 7.92 1 12 C1.99 12.33 2.98 12.66 4 13 C3.67 13.66 3.34 14.32 3 15 C2.01 15 1.02 15 0 15 C0 10.05 0 5.1 0 0 Z " fill="#C0C5DD" transform="translate(81,96)"/>
<path d="M0 0 C0.33 0.99 0.66 1.98 1 3 C-0.21484375 4.82421875 -0.21484375 4.82421875 -1.9375 6.6875 C-2.50339844 7.31011719 -3.06929688 7.93273437 -3.65234375 8.57421875 C-4.09707031 9.04472656 -4.54179688 9.51523438 -5 10 C-5.33 9.34 -5.66 8.68 -6 8 C-5.0625 5.375 -5.0625 5.375 -4 3 C-3.34 3 -2.68 3 -2 3 C-1.34 2.01 -0.68 1.02 0 0 Z " fill="#918FAA" transform="translate(110,74)"/>
<path d="M0 0 C0.66 0.33 1.32 0.66 2 1 C0.64978174 5.41889613 -1.26115668 7.34345343 -5 10 C-5.33 9.01 -5.66 8.02 -6 7 C-5.01 6.67 -4.02 6.34 -3 6 C-1.29144978 2.99992729 -1.29144978 2.99992729 0 0 Z " fill="#9BA0BA" transform="translate(125,54)"/>
<path d="M0 0 C1.32 0.33 2.64 0.66 4 1 C3.01 2.485 3.01 2.485 2 4 C1.67 4.66 1.34 5.32 1 6 C-1.0625 7.125 -1.0625 7.125 -3 8 C-3 7.01 -3 6.02 -3 5 C-2.34 5 -1.68 5 -1 5 C-0.67 3.35 -0.34 1.7 0 0 Z " fill="#999CB2" transform="translate(311,132)"/>
<path d="M0 0 C1.32 0.66 2.64 1.32 4 2 C3.2884375 3.175625 3.2884375 3.175625 2.5625 4.375 C1.66101977 5.88948678 0.78820515 7.4235897 0 9 C-1 8 -1 8 -1.125 5.0625 C-1 2 -1 2 0 0 Z " fill="#B0B2C1" transform="translate(389,33)"/>
<path d="M0 0 C0.33 1.32 0.66 2.64 1 4 C-1.31 5.65 -3.62 7.3 -6 9 C-4.47291037 5.56404834 -2.40072955 2.88087546 0 0 Z " fill="#ABAECA" transform="translate(155,19)"/>
<path d="M0 0 C0 2.97 0 5.94 0 9 C-0.66 7.68 -1.32 6.36 -2 5 C-2.99 5.495 -2.99 5.495 -4 6 C-4.33 5.01 -4.66 4.02 -5 3 C-2.25 0 -2.25 0 0 0 Z " fill="#4B52A0" transform="translate(155,139)"/>
<path d="M0 0 C0.66 0.33 1.32 0.66 2 1 C4.0374763 1.22858114 6.08040303 1.41024278 8.125 1.5625 C9.76855469 1.68818359 9.76855469 1.68818359 11.4453125 1.81640625 C12.28835937 1.87699219 13.13140625 1.93757812 14 2 C14 2.33 14 2.66 14 3 C11.70858714 3.05384521 9.41681812 3.09272087 7.125 3.125 C5.21074219 3.15980469 5.21074219 3.15980469 3.2578125 3.1953125 C0 3 0 3 -2 1 C-1.34 0.67 -0.68 0.34 0 0 Z " fill="#817BAF" transform="translate(199,233)"/>
<path d="M0 0 C0.66 0.33 1.32 0.66 2 1 C0.62845496 3.95409701 -0.98863724 6.44008376 -3 9 C-3.66 8.67 -4.32 8.34 -5 8 C-3.35 5.36 -1.7 2.72 0 0 Z " fill="#8685A4" transform="translate(271,58)"/>
<path d="M0 0 C1.98 0 3.96 0 6 0 C5 2 5 2 3 4 C2.34 4.99 1.68 5.98 1 7 C0.67 4.69 0.34 2.38 0 0 Z " fill="#9BA2BB" transform="translate(256,200)"/>
<path d="M0 0 C-1 2 -1 2 -3 4 C-3.66 4.99 -4.32 5.98 -5 7 C-5.6875 5.1875 -5.6875 5.1875 -6 3 C-4.04862098 0.26806937 -3.44686768 0 0 0 Z " fill="#A0A4B9" transform="translate(405,21)"/>
<path d="M0 0 C3.3 0 6.6 0 10 0 C10 0.33 10 0.66 10 1 C6.7 1 3.4 1 0 1 C0 0.67 0 0.34 0 0 Z " fill="#D6EEF7" transform="translate(213,234)"/>
<path d="M0 0 C3.3 0 6.6 0 10 0 C10 0.33 10 0.66 10 1 C6.7 1 3.4 1 0 1 C0 0.67 0 0.34 0 0 Z " fill="#B9D3DE" transform="translate(263,51)"/>
<path d="M0 0 C4 1 4 1 4 1 Z " fill="#A986D1" transform="translate(4,235)"/>
<path d="M0 0 C4 1 4 1 4 1 Z " fill="#93A1CB" transform="translate(223,233)"/>
<path d="M0 0 C0 3 0 3 0 3 Z " fill="#BDBFC1" transform="translate(380,51)"/>
<path d="M0 0 C3 1 3 1 3 1 Z " fill="#F7FCEA" transform="translate(77,234)"/>
<path d="" fill="#04073F" transform="translate(0,0)"/>
<path d="" fill="#070D40" transform="translate(0,0)"/>
<path d="M0 0 C3 1 3 1 3 1 Z " fill="#837FC0" transform="translate(177,1)"/>
<path d="M0 0 C2 1 2 1 2 1 Z " fill="#818283" transform="translate(157,234)"/>
<path d="M0 0 C2 1 2 1 2 1 Z " fill="#8C84B6" transform="translate(2,234)"/>
<path d="M0 0 C2 1 2 1 2 1 Z " fill="#B6B3D3" transform="translate(227,232)"/>
<path d="" fill="#7C8085" transform="translate(0,0)"/>
<path d="" fill="#FCFFFF" transform="translate(0,0)"/>
<path d="" fill="#7F8286" transform="translate(0,0)"/>
<path d="" fill="#46468A" transform="translate(0,0)"/>
<path d="" fill="#F7FBFF" transform="translate(0,0)"/>
<path d="" fill="#373E40" transform="translate(0,0)"/>
<path d="" fill="#5046BD" transform="translate(0,0)"/>
<path d="" fill="#3E4177" transform="translate(0,0)"/>
<path d="" fill="#8281D1" transform="translate(0,0)"/>
<path d="" fill="#8684B6" transform="translate(0,0)"/>
<path d="" fill="#FBFFFF" transform="translate(0,0)"/>
<path d="" fill="#FFFFFF" transform="translate(0,0)"/>
<path d="" fill="#8885B8" transform="translate(0,0)"/>
<path d="" fill="#787D85" transform="translate(0,0)"/>
<path d="" fill="#8486D5" transform="translate(0,0)"/>
<path d="" fill="#7D8589" transform="translate(0,0)"/>
<path d="" fill="#818482" transform="translate(0,0)"/>
<path d="" fill="#8E84BA" transform="translate(0,0)"/>
<path d="" fill="#8381D5" transform="translate(0,0)"/>
<path d="" fill="#7E7D82" transform="translate(0,0)"/>
<path d="" fill="#828584" transform="translate(0,0)"/>
<path d="" fill="#837FD4" transform="translate(0,0)"/>
<path d="" fill="#7A8387" transform="translate(0,0)"/>
<path d="" fill="#7C7E8B" transform="translate(0,0)"/>
<path d="" fill="#7E86B4" transform="translate(0,0)"/>
<path d="" fill="#878CD5" transform="translate(0,0)"/>
<path d="" fill="#7D7E7F" transform="translate(0,0)"/>
<path d="" fill="#FAFCFC" transform="translate(0,0)"/>
<path d="" fill="#7D7F92" transform="translate(0,0)"/>
<path d="" fill="#83838B" transform="translate(0,0)"/>
<path d="" fill="#8589DA" transform="translate(0,0)"/>
<path d="" fill="#587781" transform="translate(0,0)"/>
<path d="" fill="#8782C0" transform="translate(0,0)"/>
<path d="" fill="#8280A6" transform="translate(0,0)"/>
<path d="" fill="#7C85B7" transform="translate(0,0)"/>
<path d="" fill="#F7FCFC" transform="translate(0,0)"/>
<path d="" fill="#EBFBF4" transform="translate(0,0)"/>
<path d="" fill="#7E7F81" transform="translate(0,0)"/>
<path d="" fill="#877CBD" transform="translate(0,0)"/>
<path d="" fill="#7C7E7D" transform="translate(0,0)"/>
<path d="" fill="#817E95" transform="translate(0,0)"/>
<path d="" fill="#3D425F" transform="translate(0,0)"/>
<path d="" fill="#78798C" transform="translate(0,0)"/>
<path d="" fill="#83848E" transform="translate(0,0)"/>
<path d="" fill="#807FC2" transform="translate(0,0)"/>
<path d="" fill="#8783BE" transform="translate(0,0)"/>
<path d="" fill="#8BF2EE" transform="translate(0,0)"/>
<path d="" fill="#FBFDFF" transform="translate(0,0)"/>
<path d="M0 0 C2 1 2 1 2 1 Z " fill="#FCFDF9" transform="translate(168,5)"/>
<path d="M0 0 C2 1 2 1 2 1 Z " fill="#818287" transform="translate(170,4)"/>
<path d="M0 0 C2 1 2 1 2 1 Z " fill="#7C7D86" transform="translate(172,3)"/>
<path d="M0 0 C2 1 2 1 2 1 Z " fill="#7E8083" transform="translate(174,2)"/>
<path d="M0 0 C2 1 2 1 2 1 Z " fill="#BABAC0" transform="translate(297,1)"/>
<path d="" fill="#F2F7FF" transform="translate(0,0)"/>
<path d="" fill="#7C847D" transform="translate(0,0)"/>
<path d="" fill="#F7FFFF" transform="translate(0,0)"/>
<path d="" fill="#8382CD" transform="translate(0,0)"/>
<path d="" fill="#848AD5" transform="translate(0,0)"/>
<path d="" fill="#02029B" transform="translate(0,0)"/>
<path d="" fill="#C1FFFF" transform="translate(0,0)"/>
<path d="" fill="#0104B3" transform="translate(0,0)"/>
<path d="" fill="#77C9D6" transform="translate(0,0)"/>
<path d="" fill="#1314C1" transform="translate(0,0)"/>
<path d="" fill="#0A0BB6" transform="translate(0,0)"/>
<path d="" fill="#88B4FF" transform="translate(0,0)"/>
<path d="" fill="#F9FFFF" transform="translate(0,0)"/>
<path d="" fill="#002089" transform="translate(0,0)"/>
<path d="" fill="#7A818C" transform="translate(0,0)"/>
<path d="" fill="#FEFDFF" transform="translate(0,0)"/>
<path d="" fill="#FBFCFF" transform="translate(0,0)"/>
<path d="" fill="#F4FAFF" transform="translate(0,0)"/>
<path d="" fill="#FCFDFF" transform="translate(0,0)"/>
<path d="" fill="#F5F8FF" transform="translate(0,0)"/>
<path d="" fill="#FDFFFD" transform="translate(0,0)"/>
<path d="" fill="#110AB5" transform="translate(0,0)"/>
<path d="" fill="#F4F5FF" transform="translate(0,0)"/>
<path d="" fill="#F9FFFF" transform="translate(0,0)"/>
<path d="" fill="#F3F8FF" transform="translate(0,0)"/>
<path d="" fill="#7377D3" transform="translate(0,0)"/>
<path d="" fill="#0B08A6" transform="translate(0,0)"/>
<path d="" fill="#F7F9FF" transform="translate(0,0)"/>
<path d="" fill="#FCF7FF" transform="translate(0,0)"/>
<path d="" fill="#160F71" transform="translate(0,0)"/>
<path d="" fill="#000049" transform="translate(0,0)"/>
<path d="" fill="#0F0DBF" transform="translate(0,0)"/>
<path d="" fill="#767981" transform="translate(0,0)"/>
<path d="" fill="#898ABA" transform="translate(0,0)"/>
<path d="" fill="#F6FBF9" transform="translate(0,0)"/>
<path d="" fill="#F3F4FF" transform="translate(0,0)"/>
<path d="" fill="#F9FEFF" transform="translate(0,0)"/>
<path d="" fill="#FBFFFF" transform="translate(0,0)"/>
<path d="" fill="#FEFDFF" transform="translate(0,0)"/>
<path d="" fill="#F2F9FB" transform="translate(0,0)"/>
<path d="" fill="#FCFDFF" transform="translate(0,0)"/>
<path d="" fill="#F9FFFF" transform="translate(0,0)"/>
<path d="" fill="#F7FBFE" transform="translate(0,0)"/>
<path d="" fill="#7D8184" transform="translate(0,0)"/>
<path d="" fill="#F7FEFF" transform="translate(0,0)"/>
<path d="" fill="#777B8C" transform="translate(0,0)"/>
<path d="" fill="#FCFFFF" transform="translate(0,0)"/>
<path d="" fill="#F1EEFF" transform="translate(0,0)"/>
<path d="" fill="#F5F8FF" transform="translate(0,0)"/>
<path d="" fill="#13127B" transform="translate(0,0)"/>
<path d="" fill="#F5F9FF" transform="translate(0,0)"/>
<path d="" fill="#1D1E4D" transform="translate(0,0)"/>
<path d="" fill="#F1FDFF" transform="translate(0,0)"/>
<path d="" fill="#F8FFFF" transform="translate(0,0)"/>
<path d="" fill="#8AC7DB" transform="translate(0,0)"/>
<path d="" fill="#58E9FF" transform="translate(0,0)"/>
<path d="" fill="#D0FFFF" transform="translate(0,0)"/>
<path d="" fill="#848ACA" transform="translate(0,0)"/>
<path d="" fill="#F9FEFF" transform="translate(0,0)"/>
<path d="" fill="#0E05AA" transform="translate(0,0)"/>
<path d="" fill="#F4FCFF" transform="translate(0,0)"/>
<path d="" fill="#F7F3FF" transform="translate(0,0)"/>
<path d="" fill="#0B0D70" transform="translate(0,0)"/>
<path d="" fill="#F7F6FF" transform="translate(0,0)"/>
<path d="" fill="#F3F4FF" transform="translate(0,0)"/>
<path d="" fill="#F7FAFF" transform="translate(0,0)"/>
<path d="" fill="#F1FFFF" transform="translate(0,0)"/>
<path d="" fill="#7F8991" transform="translate(0,0)"/>
<path d="" fill="#F5FAFF" transform="translate(0,0)"/>
<path d="" fill="#FEFCFF" transform="translate(0,0)"/>
<path d="" fill="#1F1C84" transform="translate(0,0)"/>
<path d="" fill="#EFF5F9" transform="translate(0,0)"/>
<path d="" fill="#F8FEFF" transform="translate(0,0)"/>
<path d="" fill="#808185" transform="translate(0,0)"/>
<path d="" fill="#FDFFFF" transform="translate(0,0)"/>
<path d="" fill="#FBFCFF" transform="translate(0,0)"/>
<path d="" fill="#8E919E" transform="translate(0,0)"/>
<path d="" fill="#FAF4FF" transform="translate(0,0)"/>
<path d="" fill="#FFFFFF" transform="translate(0,0)"/>
<path d="" fill="#8B87E3" transform="translate(0,0)"/>
<path d="" fill="#FCFFFF" transform="translate(0,0)"/>
<path d="" fill="#FEFFFF" transform="translate(0,0)"/>
<path d="" fill="#7ABBFF" transform="translate(0,0)"/>
<path d="" fill="#002985" transform="translate(0,0)"/>
<path d="" fill="#F2FBFF" transform="translate(0,0)"/>
<path d="" fill="#97CAD2" transform="translate(0,0)"/>
<path d="" fill="#E8F7FF" transform="translate(0,0)"/>
<path d="" fill="#568C91" transform="translate(0,0)"/>
<path d="" fill="#F8FFFF" transform="translate(0,0)"/>
<path d="" fill="#FAF5FF" transform="translate(0,0)"/>
<path d="" fill="#020210" transform="translate(0,0)"/>
<path d="" fill="#FAF9FF" transform="translate(0,0)"/>
<path d="" fill="#F7FAFF" transform="translate(0,0)"/>
<path d="" fill="#F9FAFF" transform="translate(0,0)"/>
<path d="" fill="#F9F6FF" transform="translate(0,0)"/>
<path d="" fill="#F8FFFF" transform="translate(0,0)"/>
<path d="" fill="#E0F5FF" transform="translate(0,0)"/>
<path d="" fill="#7B8284" transform="translate(0,0)"/>
<path d="" fill="#F8FAF9" transform="translate(0,0)"/>
<path d="" fill="#F0FDFF" transform="translate(0,0)"/>
<path d="" fill="#F8FFFF" transform="translate(0,0)"/>
<path d="" fill="#1E1286" transform="translate(0,0)"/>
<path d="" fill="#747A7F" transform="translate(0,0)"/>
<path d="" fill="#F3F9FF" transform="translate(0,0)"/>
<path d="" fill="#191970" transform="translate(0,0)"/>
<path d="" fill="#FCFDFF" transform="translate(0,0)"/>
<path d="" fill="#F5F8F3" transform="translate(0,0)"/>
<path d="" fill="#F0F2FF" transform="translate(0,0)"/>
<path d="" fill="#1F1B61" transform="translate(0,0)"/>
<path d="" fill="#000044" transform="translate(0,0)"/>
<path d="" fill="#00050C" transform="translate(0,0)"/>
<path d="" fill="#F1FFFF" transform="translate(0,0)"/>
<path d="" fill="#727EAE" transform="translate(0,0)"/>
<path d="" fill="#0C0794" transform="translate(0,0)"/>
<path d="" fill="#F7FFFF" transform="translate(0,0)"/>
<path d="" fill="#F8FFFF" transform="translate(0,0)"/>
<path d="" fill="#1309A7" transform="translate(0,0)"/>
<path d="" fill="#F2F5FF" transform="translate(0,0)"/>
<path d="" fill="#7B7BA6" transform="translate(0,0)"/>
<path d="" fill="#F3F3FF" transform="translate(0,0)"/>
<path d="" fill="#141053" transform="translate(0,0)"/>
<path d="" fill="#FCFCFF" transform="translate(0,0)"/>
<path d="" fill="#7A8085" transform="translate(0,0)"/>
<path d="" fill="#FAFFFF" transform="translate(0,0)"/>
<path d="" fill="#F5FFFF" transform="translate(0,0)"/>
<path d="" fill="#F4FEFF" transform="translate(0,0)"/>
<path d="" fill="#FFFFFF" transform="translate(0,0)"/>
<path d="" fill="#15124E" transform="translate(0,0)"/>
<path d="" fill="#7C8CA9" transform="translate(0,0)"/>
<path d="" fill="#F2F4FF" transform="translate(0,0)"/>
<path d="" fill="#7B82AB" transform="translate(0,0)"/>
<path d="" fill="#030044" transform="translate(0,0)"/>
<path d="" fill="#1B135F" transform="translate(0,0)"/>
<path d="" fill="#ECFBFF" transform="translate(0,0)"/>
<path d="" fill="#F6FDFF" transform="translate(0,0)"/>
<path d="" fill="#F2FAFF" transform="translate(0,0)"/>
<path d="" fill="#9FAAFF" transform="translate(0,0)"/>
<path d="" fill="#FFFEFF" transform="translate(0,0)"/>
<path d="" fill="#1E1871" transform="translate(0,0)"/>
<path d="" fill="#FFFFFF" transform="translate(0,0)"/>
<path d="" fill="#FEFFFF" transform="translate(0,0)"/>
<path d="" fill="#FBF8FF" transform="translate(0,0)"/>
<path d="" fill="#7F8386" transform="translate(0,0)"/>
<path d="" fill="#FDFFFF" transform="translate(0,0)"/>
<path d="" fill="#898B9A" transform="translate(0,0)"/>
<path d="" fill="#7A7B81" transform="translate(0,0)"/>
<path d="" fill="#FAF6FF" transform="translate(0,0)"/>
<path d="" fill="#4DE4EE" transform="translate(0,0)"/>
<path d="" fill="#170AA3" transform="translate(0,0)"/>
<path d="" fill="#D6FFFF" transform="translate(0,0)"/>
<path d="" fill="#F0F5FF" transform="translate(0,0)"/>
<path d="" fill="#FFFFFF" transform="translate(0,0)"/>
<path d="" fill="#1A17B5" transform="translate(0,0)"/>
<path d="" fill="#F7FCFC" transform="translate(0,0)"/>
<path d="" fill="#FFFFFF" transform="translate(0,0)"/>
<path d="" fill="#F8FEFF" transform="translate(0,0)"/>
<path d="" fill="#FFFFFF" transform="translate(0,0)"/>
<path d="" fill="#7FB6B5" transform="translate(0,0)"/>
<path d="" fill="#090F6A" transform="translate(0,0)"/>
<path d="" fill="#F8FCFF" transform="translate(0,0)"/>
<path d="" fill="#57928E" transform="translate(0,0)"/>
<path d="" fill="#748188" transform="translate(0,0)"/>
<path d="" fill="#7F7B88" transform="translate(0,0)"/>
<path d="" fill="#16069F" transform="translate(0,0)"/>
<path d="" fill="#FFFEFF" transform="translate(0,0)"/>
<path d="" fill="#897DE2" transform="translate(0,0)"/>
<path d="" fill="#21116F" transform="translate(0,0)"/>
<path d="" fill="#FDF3FF" transform="translate(0,0)"/>
<path d="" fill="#F0FFFE" transform="translate(0,0)"/>
<path d="" fill="#BBFFFF" transform="translate(0,0)"/>
<path d="" fill="#77CFE1" transform="translate(0,0)"/>
<path d="" fill="#06084E" transform="translate(0,0)"/>
<path d="" fill="#EAEEFF" transform="translate(0,0)"/>
<path d="" fill="#141270" transform="translate(0,0)"/>
<path d="" fill="#0F00B8" transform="translate(0,0)"/>
<path d="" fill="#7F7684" transform="translate(0,0)"/>
<path d="" fill="#1A1930" transform="translate(0,0)"/>
<path d="" fill="#7D7D96" transform="translate(0,0)"/>
<path d="" fill="#F7FFFA" transform="translate(0,0)"/>
<path d="" fill="#8287C9" transform="translate(0,0)"/>
<path d="" fill="#75B77F" transform="translate(0,0)"/>
<path d="" fill="#001E00" transform="translate(0,0)"/>
<path d="" fill="#6DC7DB" transform="translate(0,0)"/>
<path d="" fill="#BBFFFF" transform="translate(0,0)"/>
<path d="" fill="#D5CEFF" transform="translate(0,0)"/>
<path d="" fill="#EDFDFC" transform="translate(0,0)"/>
<path d="" fill="#867BDE" transform="translate(0,0)"/>
<path d="" fill="#F6FEF6" transform="translate(0,0)"/>
<path d="" fill="#FEFCFF" transform="translate(0,0)"/>
<path d="" fill="#FFFFFF" transform="translate(0,0)"/>
<path d="" fill="#7C8093" transform="translate(0,0)"/>
<path d="" fill="#00040A" transform="translate(0,0)"/>
<path d="" fill="#DAD6FE" transform="translate(0,0)"/>
<path d="" fill="#FFFFFF" transform="translate(0,0)"/>
<path d="" fill="#FFFFFF" transform="translate(0,0)"/>
<path d="" fill="#FAF8FF" transform="translate(0,0)"/>
<path d="" fill="#FFFFFF" transform="translate(0,0)"/>
<path d="" fill="#F6F8FA" transform="translate(0,0)"/>
<path d="" fill="#19154A" transform="translate(0,0)"/>
<path d="" fill="#7E7AB0" transform="translate(0,0)"/>
<path d="" fill="#FAF9FF" transform="translate(0,0)"/>
<path d="" fill="#8983C0" transform="translate(0,0)"/>
<path d="" fill="#F2F9FF" transform="translate(0,0)"/>
<path d="" fill="#212133" transform="translate(0,0)"/>
<path d="" fill="#111480" transform="translate(0,0)"/>
<path d="" fill="#787787" transform="translate(0,0)"/>
<path d="" fill="#0905A8" transform="translate(0,0)"/>
<path d="" fill="#FEFAFF" transform="translate(0,0)"/>
<path d="" fill="#FBF8FF" transform="translate(0,0)"/>
<path d="" fill="#FBFEFF" transform="translate(0,0)"/>
<path d="" fill="#01040F" transform="translate(0,0)"/>
<path d="" fill="#FCFCFF" transform="translate(0,0)"/>
<path d="" fill="#8381CF" transform="translate(0,0)"/>
<path d="" fill="#000407" transform="translate(0,0)"/>
<path d="" fill="#847FD7" transform="translate(0,0)"/>
<path d="" fill="#8480CF" transform="translate(0,0)"/>
<path d="" fill="#FBFFFF" transform="translate(0,0)"/>
<path d="" fill="#EDECFF" transform="translate(0,0)"/>
<path d="" fill="#FBFFFF" transform="translate(0,0)"/>
<path d="" fill="#F0F0FF" transform="translate(0,0)"/>
<path d="" fill="#F7F6FF" transform="translate(0,0)"/>
<path d="" fill="#F3EEFF" transform="translate(0,0)"/>
<path d="" fill="#888BCA" transform="translate(0,0)"/>
<path d="" fill="#F8F8FF" transform="translate(0,0)"/>
<path d="" fill="#1407A6" transform="translate(0,0)"/>
<path d="" fill="#AAB0FF" transform="translate(0,0)"/>
<path d="" fill="#F3FDFF" transform="translate(0,0)"/>
<path d="" fill="#1002B8" transform="translate(0,0)"/>
<path d="" fill="#ABE1E8" transform="translate(0,0)"/>
<path d="" fill="#F8F5FF" transform="translate(0,0)"/>
<path d="" fill="#8C8EBB" transform="translate(0,0)"/>
<path d="" fill="#F3F9FF" transform="translate(0,0)"/>
<path d="" fill="#8581B7" transform="translate(0,0)"/>
<path d="" fill="#F6FFFF" transform="translate(0,0)"/>
<path d="" fill="#7C8387" transform="translate(0,0)"/>
<path d="" fill="#EEFFFE" transform="translate(0,0)"/>
<path d="" fill="#FAF2FF" transform="translate(0,0)"/>
<path d="" fill="#F9FCFF" transform="translate(0,0)"/>
<path d="" fill="#7F7C8D" transform="translate(0,0)"/>
<path d="" fill="#FDFDFF" transform="translate(0,0)"/>
<path d="" fill="#FFFEFF" transform="translate(0,0)"/>
<path d="" fill="#37E5EF" transform="translate(0,0)"/>
<path d="" fill="#827CA5" transform="translate(0,0)"/>
<path d="" fill="#818181" transform="translate(0,0)"/>
<path d="" fill="#8882A6" transform="translate(0,0)"/>
<path d="" fill="#FAFCFC" transform="translate(0,0)"/>
<path d="" fill="#FBFCFF" transform="translate(0,0)"/>
<path d="" fill="#030311" transform="translate(0,0)"/>
<path d="" fill="#FCFDFF" transform="translate(0,0)"/>
<path d="" fill="#FFFFFF" transform="translate(0,0)"/>
<path d="" fill="#FDFEFF" transform="translate(0,0)"/>
<path d="" fill="#F3F6FF" transform="translate(0,0)"/>
<path d="" fill="#727475" transform="translate(0,0)"/>
<path d="" fill="#0F09A8" transform="translate(0,0)"/>
<path d="" fill="#FFFFFF" transform="translate(0,0)"/>
<path d="" fill="#F2FDFF" transform="translate(0,0)"/>
<path d="" fill="#E9EA66" transform="translate(0,0)"/>
</svg>
